<svg width="52" height="48" viewBox="0 0 52 48" fill="none" xmlns="http://www.w3.org/2000/svg">
<rect width="52" height="48" rx="10" fill="#D4F0FF"/>
<path d="M26.3561 28.39C24.7279 28.39 23.1 27.77 21.8605 26.5305C19.382 24.052 19.382 20.0184 21.8605 17.5398C24.3395 15.0613 28.373 15.0609 30.8516 17.5398C33.3306 20.0184 33.3306 24.052 30.8516 26.5305C29.6121 27.77 27.9839 28.39 26.3561 28.39ZM26.3557 16.4681C24.9295 16.4681 23.5029 17.0109 22.4171 18.0968C20.2453 20.2685 20.2453 23.8019 22.4171 25.9736C24.5888 28.1454 28.1226 28.1454 30.2943 25.9736C32.4661 23.8019 32.4661 20.2685 30.2943 18.0968C29.2084 17.0113 27.7823 16.4681 26.3557 16.4681Z" fill="#331B3B"/>
<path d="M39.2719 32.8646L34.0371 27.6294C33.559 27.1513 32.8335 27.0764 32.2706 27.3935L31.1154 26.2383C33.3195 23.7444 33.236 19.9247 30.8512 17.5402C28.373 15.0613 24.339 15.0617 21.8601 17.5402C19.3815 20.0188 19.3815 24.0524 21.8601 26.5309C23.0995 27.77 24.7274 28.3904 26.3556 28.3904C27.8602 28.3904 29.3608 27.8539 30.5585 26.7956L31.7137 27.9508C31.3967 28.5136 31.4711 29.2387 31.9496 29.7173L37.1849 34.9521C37.4625 35.2302 37.8332 35.3834 38.2282 35.3834C38.6232 35.3834 38.9939 35.2302 39.2715 34.9521C39.5496 34.674 39.7028 34.3034 39.7028 33.9084C39.7028 33.5133 39.55 33.1423 39.2719 32.8646ZM22.4174 25.974C20.2456 23.8023 20.2456 20.2689 22.4174 18.0972C23.5033 17.0113 24.9294 16.4685 26.356 16.4685C27.7826 16.4685 29.2087 17.0113 30.2946 18.0972C32.4664 20.2689 32.4664 23.8023 30.2946 25.974C28.1229 28.1458 24.5887 28.1454 22.4174 25.974ZM38.715 34.3952C38.4566 34.6536 38.0005 34.6536 37.7418 34.3952L32.5066 29.16C32.2383 28.8913 32.2383 28.455 32.5066 28.1863C32.6409 28.0524 32.8169 27.9851 32.9934 27.9851C33.1694 27.9851 33.3459 28.052 33.4798 28.1863L38.7146 33.4216C38.8438 33.5507 38.9151 33.7236 38.9151 33.908C38.9151 34.0923 38.8442 34.2656 38.715 34.3952Z" fill="#331B3B"/>
<path d="M22.2343 24.2985C22.1149 24.2985 21.9972 24.2445 21.92 24.1425C21.7888 23.9692 21.8227 23.7219 21.9964 23.5907L27.6802 19.289C27.7692 19.222 27.8819 19.1952 27.9913 19.2161C28.1004 19.237 28.1962 19.3028 28.2541 19.3977L30.0142 22.2827L30.6066 21.8573C30.7823 21.7297 31.0288 21.7707 31.1564 21.9475C31.2832 22.1244 31.2431 22.3702 31.0662 22.4974L30.1292 23.1705C30.0402 23.2343 29.928 23.2591 29.8216 23.2367C29.7141 23.215 29.6204 23.1492 29.5636 23.0559L27.809 20.1799L22.4721 24.2186C22.4005 24.2725 22.317 24.2985 22.2343 24.2985Z" fill="#331B3B"/>
<path d="M36.5795 28.863C36.7973 28.863 36.9734 28.6869 36.9734 28.4691V9.24038C36.9734 8.15725 36.0923 7.27618 35.0092 7.27618H18.2606C17.1775 7.27618 16.2968 8.15725 16.2968 9.24038V40.76C16.2968 41.8427 17.1779 42.7238 18.2606 42.7238H35.0088C36.0919 42.7238 36.973 41.8427 36.973 40.76V35.975C36.973 35.7572 36.7969 35.5811 36.5791 35.5811C36.3613 35.5811 36.1853 35.7572 36.1853 35.975V36.9931H17.0845V25.3108L18.1046 26.9803C18.1625 27.0753 18.2582 27.141 18.3673 27.1619C18.3917 27.1666 18.4162 27.169 18.4406 27.169C18.5257 27.169 18.6092 27.1414 18.6785 27.0894L19.927 26.145C20.1003 26.0134 20.1346 25.7665 20.0034 25.5932C19.8719 25.4199 19.6249 25.3856 19.4516 25.5167L18.5501 26.1989L17.0845 23.8003V11.7946H36.1857V17.8498L33.3479 19.8888C33.171 20.0157 33.1305 20.2618 33.2577 20.4387C33.3345 20.5458 33.4554 20.6029 33.5779 20.6029C33.6575 20.6029 33.7378 20.5789 33.8071 20.5289L36.1857 18.8199V28.4695C36.1857 28.6865 36.3617 28.863 36.5795 28.863ZM36.1857 37.7808V40.7596C36.1857 41.4079 35.6579 41.9357 35.0092 41.9357H18.2606C17.6123 41.9357 17.0845 41.4079 17.0845 40.7596V37.7808H36.1857ZM17.0845 11.0068V9.24038C17.0845 8.59168 17.6123 8.06391 18.2606 8.06391H35.0088C35.6575 8.06391 36.1853 8.59168 36.1853 9.24038V11.0068H17.0845V11.0068Z" fill="#331B3B"/>
<path d="M26.6349 41.278C25.8637 41.278 25.2363 40.6505 25.2363 39.8793C25.2363 39.1082 25.8637 38.4803 26.6349 38.4803C27.4061 38.4803 28.0335 39.1082 28.0335 39.8793C28.0335 40.6505 27.4061 41.278 26.6349 41.278ZM26.6349 39.2685C26.2982 39.2685 26.024 39.5426 26.024 39.8797C26.024 40.2169 26.2982 40.4906 26.6349 40.4906C26.9717 40.4906 27.2458 40.2169 27.2458 39.8797C27.2458 39.5426 26.9721 39.2685 26.6349 39.2685Z" fill="#331B3B"/>
<path d="M29.0319 9.90244H24.2378C24.0204 9.90244 23.844 9.72599 23.844 9.50858C23.844 9.29117 24.0204 9.11472 24.2378 9.11472H29.0319C29.2497 9.11472 29.4258 9.29117 29.4258 9.50858C29.4258 9.72599 29.2497 9.90244 29.0319 9.90244Z" fill="#331B3B"/>
</svg>
