<svg width="52" height="47" viewBox="0 0 52 47" fill="none" xmlns="http://www.w3.org/2000/svg">
<g clip-path="url(#clip0_4_15)">
<rect y="-1" width="52" height="48" rx="10" fill="#FFEED4"/>
<path d="M42.7392 29.1573H9.26086V11.7006C9.26086 10.5887 10.1652 9.68442 11.277 9.68442H40.723C41.8345 9.68442 42.7392 10.5887 42.7392 11.7006V29.1573ZM10.0048 28.4133H41.9952V11.7006C41.9952 10.999 41.4246 10.4284 40.723 10.4284H11.277C10.5754 10.4284 10.0048 10.999 10.0048 11.7006V28.4133Z" fill="#331B3B"/>
<path d="M40.723 33.7788H11.277C10.1652 33.7788 9.26086 32.8741 9.26086 31.7626V28.4133H42.7392V31.7626C42.7392 32.8741 41.8345 33.7788 40.723 33.7788ZM10.0048 29.1573V31.7626C10.0048 32.4642 10.5754 33.0348 11.277 33.0348H40.723C41.4246 33.0348 41.9952 32.4642 41.9952 31.7626V29.1573H10.0048V29.1573Z" fill="#331B3B"/>
<path d="M31.1427 38.3776H20.8574C20.6967 38.3776 20.5542 38.2745 20.504 38.1216C20.4538 37.9688 20.5077 37.8014 20.6372 37.7061C22.0499 36.6687 22.9929 35.0837 23.2243 33.3577C23.2488 33.1732 23.4066 33.0352 23.5929 33.0352H28.4064C28.5927 33.0352 28.7504 33.1728 28.775 33.3577C29.0064 35.0841 29.9497 36.6687 31.3625 37.7061C31.4923 37.8014 31.5459 37.9688 31.4957 38.1216C31.4454 38.2745 31.3037 38.3776 31.1427 38.3776ZM21.8662 37.6336H30.1342C29.0767 36.5921 28.3547 35.2392 28.0891 33.7788H23.911C23.6457 35.2392 22.9237 36.5921 21.8662 37.6336Z" fill="#331B3B"/>
<path d="M31.9718 40.316H20.0282C19.2887 40.316 18.6872 39.7145 18.6872 38.975C18.6872 38.2355 19.2887 37.634 20.0282 37.634H31.9718C32.7113 37.634 33.3128 38.2355 33.3128 38.975C33.3128 39.7145 32.7113 40.316 31.9718 40.316ZM20.0282 38.3776C19.699 38.3776 19.4312 38.6454 19.4312 38.9746C19.4312 39.3038 19.699 39.5717 20.0282 39.5717H31.9718C32.3014 39.5717 32.5688 39.3038 32.5688 38.9746C32.5688 38.6454 32.301 38.3776 31.9718 38.3776H20.0282Z" fill="#331B3B"/>
<path d="M26.6327 31.468H25.3673C25.1619 31.468 24.9953 31.3018 24.9953 31.096C24.9953 30.8903 25.1619 30.7241 25.3673 30.7241H26.6327C26.8384 30.7241 27.0047 30.8903 27.0047 31.096C27.0047 31.3018 26.8384 31.468 26.6327 31.468Z" fill="#331B3B"/>
<path d="M22.7582 23.0393C21.4593 23.0393 21.0851 21.8832 20.7841 20.9543C20.4761 20.0032 20.2529 19.4203 19.5703 19.4203C19.365 19.4203 19.1984 19.2536 19.1984 19.0483C19.1984 18.843 19.365 18.6763 19.5703 18.6763C20.2529 18.6763 20.4765 18.0934 20.7845 17.1423C21.0854 16.2131 21.4596 15.0573 22.7586 15.0573C22.9639 15.0573 23.1306 15.224 23.1306 15.4293C23.1306 15.6346 22.9639 15.8013 22.7586 15.8013C22.0373 15.8013 21.8074 16.3979 21.4924 17.3714C21.3023 17.9588 21.0821 18.638 20.6145 19.0483C21.0821 19.4586 21.3023 20.1378 21.4924 20.7252C21.8074 21.6987 22.0373 22.2953 22.7586 22.2953C22.9639 22.2953 23.1306 22.462 23.1306 22.6673C23.1306 22.8726 22.9636 23.0393 22.7582 23.0393Z" fill="#331B3B"/>
<path d="M29.2419 23.0393C29.0361 23.0393 28.8699 22.8726 28.8699 22.6673C28.8699 22.462 29.0361 22.2953 29.2419 22.2953C29.9628 22.2953 30.193 21.6987 30.5081 20.7248C30.6982 20.1378 30.9184 19.4582 31.386 19.0483C30.918 18.638 30.6978 17.9588 30.5081 17.3718C30.1926 16.3979 29.9628 15.8013 29.2419 15.8013C29.0361 15.8013 28.8699 15.6346 28.8699 15.4293C28.8699 15.224 29.0361 15.0573 29.2419 15.0573C30.5408 15.0573 30.915 16.2134 31.216 17.1423C31.524 18.0934 31.7471 18.6763 32.4297 18.6763C32.6354 18.6763 32.8017 18.843 32.8017 19.0483C32.8017 19.2536 32.6354 19.4203 32.4297 19.4203C31.7471 19.4203 31.5236 20.0032 31.2156 20.9543C30.915 21.8832 30.5408 23.0393 29.2419 23.0393Z" fill="#331B3B"/>
<path d="M24.5378 23.9034C24.4987 23.9034 24.4589 23.8971 24.4195 23.884C24.2249 23.8186 24.1197 23.6077 24.1851 23.4131L27.1907 14.4473C27.2562 14.2527 27.4671 14.1478 27.6617 14.2129C27.8566 14.2784 27.9618 14.4893 27.8964 14.6838L24.8908 23.6497C24.8383 23.8048 24.6933 23.9034 24.5378 23.9034Z" fill="#331B3B"/>
</g>
<defs>
<clipPath id="clip0_4_15">
<rect width="52" height="47" fill="white"/>
</clipPath>
</defs>
</svg>
